<?xml version="1.0" standalone="no"?>
<!DOCTYPE svg PUBLIC "-//W3C//DTD SVG 20010904//EN"
 "http://www.w3.org/TR/2001/REC-SVG-20010904/DTD/svg10.dtd">
<svg version="1.0" xmlns="http://www.w3.org/2000/svg"
 width="1056.000000pt" height="1056.000000pt" viewBox="0 0 1056.000000 1056.000000"
 preserveAspectRatio="xMidYMid meet">
<metadata>
Created by potrace 1.11, written by Peter Selinger 2001-2013
</metadata>
<g transform="translate(0.000000,1056.000000) scale(0.100000,-0.100000)"
fill="#000000" stroke="none">
<path d="M2296 10543 c-1 -1 -24 -5 -51 -8 -85 -11 -211 -79 -286 -154 -111
-111 -103 -39 -100 -991 4 -894 5 -7219 1 -8250 -2 -646 0 -680 34 -777 43
-123 183 -268 306 -318 43 -18 150 -19 2985 -19 1617 -1 2974 2 3015 6 113 12
204 60 305 162 90 91 124 148 154 254 25 92 24 -225 22 5007 0 231 2 1383 4
2560 5 2342 8 2195 -52 2290 -52 82 -165 169 -273 211 -42 16 -172 17 -1960
20 -1053 2 -2407 5 -3008 6 -602 2 -1095 2 -1096 1z"/>
</g>
</svg>
